<svg role="img" viewBox="0 0 24 24" xmlns="http://www.w3.org/2000/svg"><title>Redux</title><path fill="#764ABC" d="M16.6 16.7c.9-.1 1.6-.9 1.5-1.8-.1-.9-.8-1.6-1.7-1.6h-.1c-.9 0-1.7.8-1.6 1.8.1.9.8 1.6 1.7 1.6h.2zm-9.2 0h.2c.9 0 1.6-.7 1.7-1.6.1-1-.7-1.8-1.6-1.8h-.1c-.9 0-1.6.7-1.7 1.6-.1.9.6 1.7 1.5 1.8zm8.6-9.6c-.5-.7-1.5-.9-2.2-.4-.8.5-1 1.5-.5 2.2.5.7 1.5.9 2.2.5.8-.5 1-1.5.5-2.3zm-4.3 11.2c-.8-.8-2.1-.8-2.9 0-.8.8-.8 2.1 0 2.9.8.8 2.1.8 2.9 0 .8-.8.8-2.1 0-2.9zm1.4-8.3c-2.1-1.4-4.9-1.2-6.8.4-2.5 2.1-2.8 5.8-.7 8.3l1.1-1.1c-1.5-1.8-1.3-4.5.5-6 .8-.7 1.8-1 2.8-.9.9.1 1.8.5 2.5 1.2l-1.7 1.3 4.4.3-.8-4.4-1.3 1.9zm5.5 2.5-1.1 1.1c1.5 1.8 1.3 4.5-.5 6-.8.7-1.8 1-2.8.9-.9-.1-1.8-.5-2.5-1.2l1.7-1.3-4.4-.3.8 4.4 1.3-1.9c2.1 1.4 4.9 1.2 6.8-.4 2.5-2.1 2.8-5.8.7-8.3z"/></svg>
